<?xml version="1.0" encoding="UTF-8" standalone="no"?>
<!DOCTYPE svg PUBLIC "-//W3C//DTD SVG 1.1//EN" "http://www.w3.org/Graphics/SVG/1.1/DTD/svg11.dtd">
<svg width="100%" height="100%" viewBox="0 0 1280 640" version="1.1" xmlns="http://www.w3.org/2000/svg" xmlns:xlink="http://www.w3.org/1999/xlink" xml:space="preserve" xmlns:serif="http://www.serif.com/" style="fill-rule:evenodd;clip-rule:evenodd;stroke-linejoin:round;stroke-miterlimit:2;">
    <g id="Artboard1" transform="matrix(0.874413,0,0,0.952481,0,34.4117)">
        <rect x="0" y="-36.128" width="1463.84" height="671.929" style="fill:none;"/>
        <clipPath id="_clip1">
            <rect x="0" y="-36.128" width="1463.84" height="671.929"/>
        </clipPath>
        <g clip-path="url(#_clip1)">
            <g transform="matrix(1.14362,0,0,1.04989,0,-36.1284)">
                <rect x="-54.385" y="-104.759" width="1416.1" height="816.066" style="fill:white;"/>
            </g>
            <g transform="matrix(0.843065,0,0,0.773965,23.5197,88.6872)">
                <path d="M575.12,335.18C574.597,331.188 573.686,326.774 572.55,322.157C582.401,313.938 589.78,301.411 593.964,292.973C599.128,306.649 598.679,322.539 598.671,322.735C598.612,324.504 599.604,326.145 601.202,326.915C601.819,327.212 602.483,327.36 603.143,327.36C604.186,327.36 605.218,326.993 606.046,326.286C640.984,296.434 630.089,213.946 629.608,210.446C629.334,208.458 627.768,206.891 625.776,206.626C623.772,206.348 621.862,207.454 621.069,209.297C613.573,226.793 597.948,232.711 586.155,234.598C562.55,238.372 535.749,229.227 526.436,218.653C526.428,218.646 526.412,218.642 526.404,218.63C526.4,218.626 526.4,218.618 526.397,218.61C526.377,218.591 526.357,218.575 526.342,218.556L526.272,218.466C526.26,218.454 526.24,218.446 526.229,218.435C507.495,197.349 447.487,181.693 413.669,195.095C389.431,204.724 365.985,199.192 358.021,196.77C358.567,181.661 358.142,166.375 356.657,151.262C353.313,116.563 334.88,100.899 326.446,95.465C327.29,93.696 328.075,91.801 328.743,89.731C334.505,71.938 335.392,30.165 324.755,11.137C321.552,5.403 317.438,1.887 312.54,0.696C295.431,-3.495 281.134,12.216 268.524,26.055C264.446,30.524 260.602,34.75 257.063,37.825C245.141,48.153 244.364,62.516 244.86,69.766C242.208,68.192 239.348,66.817 236.165,65.813C220.337,60.852 205.427,68.5 199.642,72.102C193.763,68.942 183.986,65.051 171.052,64.715C170.755,56.958 168.399,46.129 158.814,37.824C155.247,34.735 151.372,30.485 147.271,25.992C134.689,12.187 120.439,-3.446 103.333,0.703C98.442,1.887 94.336,5.387 91.134,11.101C80.505,30.081 81.348,71.878 87.083,89.718C89.192,96.285 92.286,101.417 96.255,105.113C73.329,140.222 65.911,203.996 69.122,208.833C70.153,210.388 72.055,211.146 73.883,210.724C76.993,209.993 77.376,206.993 77.532,205.736C78.231,200.45 82.211,192.627 86.45,185.658C83.063,205.424 78.794,235.424 80.36,253.763C82.465,278.103 72.95,300.361 71.024,304.572C71.02,304.579 70.954,304.724 70.95,304.732C70.942,304.751 70.946,304.767 70.938,304.783C70.2,306.423 70.493,308.4 71.84,309.751C73.227,311.138 75.301,311.416 76.973,310.591C84.504,307.212 91.172,299.427 95.903,292.614C103.872,348.774 146.708,382.434 156.415,389.407C157.099,400.13 160.939,446.044 177.563,468.196C178.618,469.599 180.411,470.247 182.11,469.876C183.821,469.493 185.157,468.142 185.516,466.431L189.055,449.521C194.356,462.697 201.348,483.716 199.844,499.876C199.657,501.915 200.872,503.817 202.805,504.501C202.938,504.551 203.075,504.536 203.208,504.571C203.341,509.262 202.989,514.024 201.786,517.458C193.727,520.63 188.54,527.298 186.802,536.95C185.778,542.606 186.919,547.356 190.196,551.075C196.423,558.141 209.634,559.997 226.399,559.997C235.204,559.997 244.989,559.489 255.254,558.95L259.157,558.751C267.942,558.286 276.512,550.364 279.731,542.981C281.988,537.828 283.008,529.688 284.305,519.387C284.813,515.336 285.367,510.93 286.051,506.254C286.059,506.203 286.039,506.16 286.043,506.109C286.102,505.594 286.078,505.082 285.957,504.57C285.926,504.445 285.867,504.336 285.828,504.219C285.742,503.953 285.672,503.687 285.539,503.437C285.188,502.797 278.199,489.816 282.227,474.769C289.012,486.261 302.653,506.195 319.188,513.371C319.758,513.621 320.363,513.742 320.961,513.742C321.996,513.742 323.027,513.379 323.848,512.688C325.149,511.594 325.711,509.856 325.305,508.203C323.445,500.649 320.191,480.719 324.25,468.808C331.734,475.125 346.805,490.066 347.203,508.206C347.246,510.152 348.535,511.839 350.391,512.394C352.246,512.948 354.254,512.241 355.351,510.648C355.391,510.585 355.75,510.062 356.301,509.218C356.371,512.195 356.125,515.101 355.359,517.464C347.312,520.597 342.132,527.261 340.39,536.948C339.367,542.604 340.507,547.354 343.785,551.073C350.011,558.139 363.223,559.995 379.988,559.995C388.793,559.995 398.578,559.487 408.843,558.948L412.745,558.749C421.522,558.284 430.1,550.362 433.319,542.999C435.94,537.069 438.139,529.519 439.929,520.69C443.772,521.174 449.257,521.694 455.144,521.694C466.113,521.694 478.328,519.87 483.234,512.557C488.585,504.526 489.812,482.612 489.976,467.034C490.413,467.804 490.655,468.237 490.663,468.253C491.339,469.472 492.546,470.308 493.921,470.515C495.312,470.706 496.698,470.265 497.694,469.296C505.257,461.921 507.999,446.87 508.975,435.956C509.061,436.053 509.143,436.151 509.229,436.245C511.202,442.534 523.354,482.155 525.124,507.397C520.16,510.143 514.909,515.381 513.104,525.514C512.081,531.17 513.222,535.92 516.499,539.639C522.725,546.705 535.937,548.561 552.702,548.561C561.507,548.561 571.292,548.053 581.557,547.514L585.459,547.315C594.225,546.85 602.803,538.951 606.037,531.577C613.088,515.413 606.564,461.323 602.85,435.218C607.99,437.737 611.686,439.319 611.904,439.421C613.85,440.249 616.1,439.596 617.307,437.87C618.518,436.139 618.357,433.807 616.924,432.261C607.506,422.128 580.401,376.956 575.119,335.175L575.12,335.18Z" style="fill:rgb(20,11,21);"/>
            </g>
            <g transform="matrix(0.843065,0,0,0.773965,23.5197,88.6872)">
                <path d="M425.12,539.412C422.804,544.721 416.796,549.584 412.268,549.826L408.366,550.033C383.171,551.346 357.124,552.717 350.483,545.174C349.592,544.158 348.491,542.377 349.182,538.549C350.494,531.236 353.963,527.006 360.127,525.233C374.584,520.967 397.1,531.947 397.33,532.057C399.553,533.151 402.224,532.244 403.314,530.033C404.408,527.823 403.502,525.139 401.295,524.045C400.389,523.6 381.549,514.412 364.932,515.436C365.889,508.069 364.518,500.081 363.764,496.545C371.623,482.002 380.491,461.24 380.135,441.928C380.092,439.455 378.025,437.467 375.58,437.541C373.111,437.592 371.147,439.623 371.193,442.096C371.545,461.045 361.275,482.6 355.119,493.768C354.768,494.412 354.416,495.033 354.076,495.635C347.323,473.737 326.236,458.951 325.189,458.229C324.209,457.553 322.998,457.299 321.818,457.518C320.643,457.741 319.607,458.424 318.939,459.416C311.697,470.193 312.986,488.869 314.713,500.377C298.256,487.881 285.775,462.732 285.631,462.439C284.896,460.943 283.393,459.982 281.725,459.935C280.01,459.818 278.506,460.783 277.705,462.248C270.072,476.084 271.572,489.666 274.018,498.35C245.459,486.311 225.893,454.612 225.678,454.264C224.654,452.58 222.646,451.76 220.717,452.268C218.803,452.772 217.455,454.475 217.393,456.455C217.135,465.006 212.436,476.033 208.174,484.412C204.869,459.908 192.186,434.31 191.529,432.994C190.673,431.291 188.837,430.303 186.955,430.569C185.068,430.815 183.544,432.221 183.154,434.08L179.126,453.33C167.688,429.025 165.407,390.225 165.243,387.092L167.329,366.182C176.048,385.584 189.704,399.924 190.481,400.729C191.841,402.143 193.958,402.499 195.716,401.62C197.47,400.733 198.438,398.811 198.106,396.878C195.571,381.995 194.61,358.808 200.427,353.874C200.872,353.495 201.923,352.596 204.891,353.624C222.469,359.694 211.298,400.272 211.177,400.675C210.751,402.14 211.106,403.722 212.11,404.866C213.122,406.011 214.637,406.561 216.141,406.331C232.106,403.886 246.821,396.179 259.903,383.425C280.536,363.159 292.059,335.433 296.891,321.499C301.747,329.64 307.981,342.659 311.727,351.19C312.325,352.553 313.563,353.526 315.032,353.792C316.509,354.069 318.005,353.569 319.036,352.499C322.403,349.022 325.055,344.167 327.114,339.183C327.61,358.335 325.989,385.898 324.204,405.437C324.036,407.288 325.032,409.058 326.708,409.866C328.384,410.667 330.391,410.362 331.735,409.081C349.723,391.987 355.942,367.655 358.094,352.632C376.676,383.984 380.008,409.585 380.047,409.874C380.254,411.55 381.387,412.968 382.981,413.538C384.57,414.101 386.348,413.733 387.57,412.565C394.055,406.374 397.07,396.651 398.468,388.971C412.956,408.959 426.753,432.799 436.468,450.647C436.539,476.354 435.039,497.967 431.98,514.881C430.175,524.928 427.875,533.17 425.117,539.412L425.12,539.412Z" style="fill:rgb(217,163,123);"/>
            </g>
            <g transform="matrix(0.843065,0,0,0.773965,23.5197,88.6872)">
                <path d="M271.54,539.412C269.224,544.721 263.216,549.584 258.688,549.826L254.782,550.033C229.591,551.346 203.536,552.717 196.899,545.174C196.008,544.158 194.907,542.377 195.598,538.549C196.903,531.279 200.371,527.053 206.508,525.233C220.91,520.924 243.473,531.951 243.696,532.061C245.907,533.151 248.587,532.252 249.684,530.037C250.778,527.83 249.876,525.147 247.665,524.053C246.759,523.608 228.052,514.451 211.493,515.416C212.661,508.631 212.114,501.26 211.583,496.865C215.715,489.729 221.454,478.74 224.411,468.103C233.629,480.291 252.255,501.064 276.665,508.822C276.212,512.119 275.797,515.322 275.422,518.283C274.274,527.482 273.278,535.431 271.54,539.412L271.54,539.412Z" style="fill:rgb(217,163,123);"/>
            </g>
            <g transform="matrix(0.843065,0,0,0.773965,23.5197,88.6872)">
                <path d="M597.842,528.002C595.522,533.295 589.514,538.15 584.99,538.385L581.088,538.592C555.897,539.905 529.842,541.268 523.205,533.733C522.314,532.717 521.213,530.936 521.904,527.1C523.084,520.475 526.173,516.291 531.377,514.299C543.182,509.686 563.275,517.303 570.018,520.623C572.225,521.709 574.912,520.803 576.002,518.592C577.092,516.381 576.19,513.697 573.971,512.607C572.951,512.107 551.225,501.556 533.85,504.467C532.248,486.709 526.53,463.967 522.291,448.862C541.709,464.667 560.482,468.514 561.439,468.698C563.326,469.069 565.255,468.174 566.201,466.487C567.138,464.792 566.884,462.686 565.572,461.276C558.115,453.233 554.287,441.612 552.326,432.37C557.036,439.362 561.525,447.425 563.56,451.35C564.302,452.78 565.755,453.702 567.368,453.76C569.044,453.897 570.497,453.006 571.341,451.631C575.95,444.116 577.185,430.045 577.415,419.713C581.368,422.971 586.61,426.416 593.063,430.061C600.348,478.581 602.286,517.803 597.84,528.002L597.842,528.002Z" style="fill:rgb(217,163,123);"/>
            </g>
            <g transform="matrix(0.843065,0,0,0.773965,23.5197,88.6872)">
                <path d="M475.792,507.6C472.062,513.159 454.823,513.467 441.519,511.877C443.531,499.15 444.769,484.178 445.21,467.115C449.027,474.494 451.265,479.107 451.304,479.185C451.945,480.498 453.183,481.42 454.625,481.646C454.859,481.685 455.089,481.705 455.328,481.705C456.535,481.705 457.703,481.217 458.55,480.334C468.734,469.748 470.917,451.092 471.136,438.725C474.765,443.225 478.156,448.08 480.89,452.225C481.476,470.338 480.625,500.346 475.793,507.6L475.792,507.6Z" style="fill:rgb(217,163,123);"/>
            </g>
            <g transform="matrix(0.843065,0,0,0.773965,23.5197,88.6872)">
                <path d="M84.98,292.312C87.972,281.929 90.566,267.968 89.277,253.003C86.945,225.733 98.777,168.331 98.898,167.757C99.265,165.999 98.539,164.198 97.07,163.179C95.593,162.156 93.656,162.113 92.14,163.073C90.531,164.089 85.394,170.55 80.328,178.561C83.981,156.725 91.504,126.694 105.93,106.842C108.387,103.432 111.016,100.424 113.879,97.772C114.192,97.46 114.477,97.206 114.954,96.772C127.743,85.557 140.997,78.331 154.368,75.28C158.641,74.284 162.786,73.733 166.759,73.647C181.841,73.081 192.505,78.112 197.509,81.175C199.067,82.136 201.063,82.034 202.528,80.936C202.684,80.823 218.09,69.479 233.501,74.339C236.603,75.311 239.384,76.628 241.771,78.245C248.798,82.995 249.732,88.909 249.763,89.1C250.052,91.553 252.294,93.338 254.724,93.014C257.173,92.729 258.927,90.502 258.638,88.053C258.603,87.768 257.896,82.819 253.767,77.424C256.896,77.065 259.833,76.869 262.466,76.994C262.571,77.002 262.673,77.049 262.782,77.049C262.814,77.049 262.837,77.03 262.868,77.03C268.067,77.338 272.181,78.506 275.044,80.518C281.716,85.233 289.134,93.413 295.392,102.975C296.818,105.135 298.158,107.342 299.427,109.541C301.795,113.752 303.826,118.018 305.467,122.213C306.021,123.631 306.603,124.885 307.181,126.127C302.002,122.69 296.947,118.291 293.646,112.85C292.369,110.733 289.619,110.073 287.506,111.343C285.396,112.624 284.721,115.37 286.006,117.483C295.494,133.135 316.084,141.288 322.295,143.452C322.299,143.452 322.303,143.456 322.306,143.46L323.119,143.741C323.142,143.749 323.17,143.745 323.189,143.753C323.209,143.761 323.221,143.776 323.24,143.784C323.306,143.808 323.424,143.835 323.517,143.866C323.529,143.87 323.537,143.878 323.549,143.886C323.599,143.897 323.662,143.909 323.713,143.925C323.748,143.933 323.771,143.944 323.806,143.952C323.834,143.96 323.861,143.956 323.888,143.964C324.127,144.022 324.353,144.061 324.603,144.089C324.861,144.132 325.135,144.222 325.357,144.222C327.826,144.222 329.826,142.226 329.826,139.753C329.826,137.679 328.412,135.936 326.498,135.429C326.353,135.378 326.217,135.343 326.076,135.308C325.924,135.253 325.748,135.19 325.607,135.143C323.482,134.116 318.33,130.55 313.783,118.948C312.721,116.222 311.463,113.476 310.104,110.73C313.561,109.636 317.752,107.413 321.596,102.972C328.389,107.378 344.772,121.074 347.764,152.124C349.318,167.952 349.736,183.979 348.998,199.765C348.83,203.581 348.603,207.003 348.369,209.98L335.658,187.984C334.564,186.085 332.252,185.277 330.205,186.039C328.158,186.816 326.975,188.96 327.412,191.109C327.529,191.687 337.283,240.66 329.24,279.285C326.756,264.414 322.576,244.723 316.572,233.332C315.701,231.672 313.885,230.73 312.041,230.984C310.189,231.226 308.685,232.59 308.264,234.414C306.467,242.179 301.596,261.102 297.108,271.566L286.811,258.449C285.666,256.992 283.74,256.394 281.971,256.937C280.201,257.484 278.955,259.07 278.834,260.914C278.776,261.84 272.576,353.73 253.279,377.374C253.267,377.393 253.267,377.409 253.252,377.428C243.529,386.803 232.869,393.076 221.475,396.112C224.334,382.194 227.947,352.128 207.823,345.178C201.401,342.956 197.116,344.983 194.659,347.065C187.12,353.467 186.585,370.049 187.475,382.881C180.436,373.123 171.698,358.342 169.588,342.815C169.287,340.596 167.393,338.948 165.162,338.948L165.08,338.948C162.819,338.987 160.936,340.714 160.709,342.967L160.112,348.913C145.276,322.268 135.928,279.276 135.823,278.784C135.483,277.206 134.323,275.932 132.78,275.456C131.237,274.979 129.561,275.362 128.385,276.475C125.264,279.424 122.502,285.62 120.545,290.983C115.053,279.12 112.034,258.983 111.233,250.647C111.006,248.284 109.002,246.444 106.588,246.612C104.213,246.714 102.334,248.659 102.311,251.034C102.19,263.991 95.366,276.19 95.291,276.311C95.268,276.35 95.272,276.393 95.252,276.432C95.229,276.475 95.19,276.502 95.17,276.549C93.534,279.842 89.725,286.455 84.982,292.315L84.98,292.312Z" style="fill:rgb(217,163,123);"/>
            </g>
            <g transform="matrix(0.843065,0,0,0.773965,23.5197,88.6872)">
                <path d="M587.565,243.418C602.276,241.066 613.948,234.762 621.971,224.957C623.369,246.434 623.647,288.676 607.155,311.844C606.292,302.809 603.921,290.035 597.511,280.098C596.593,278.684 594.975,277.875 593.296,278.079C591.62,278.246 590.186,279.348 589.581,280.922C589.495,281.145 581.948,300.512 569.929,312.524C561.667,285.551 546.273,254.758 536.241,236.055C550.155,242.598 569.143,246.383 587.565,243.419L587.565,243.418Z" style="fill:rgb(217,163,123);"/>
            </g>
            <g transform="matrix(0.843065,0,0,0.773965,23.5197,88.6872)">
                <path d="M262.925,44.578C266.859,41.152 270.878,36.746 275.132,32.074C286.07,20.074 298.46,6.461 310.425,9.386C312.812,9.968 315.007,12.027 316.952,15.499C326.027,31.741 325.421,70.956 320.238,86.972C319.245,90.015 318.046,92.621 316.679,94.715C312.847,100.57 308.273,102.238 305.691,102.707C305.453,102.312 305.214,101.929 304.972,101.535C318.48,88.887 319.105,60.578 318.933,51.652C318.804,45.011 317.781,22.976 309.949,18.441C301.207,13.296 291.211,23.437 280.629,34.183C276.754,38.116 272.75,42.183 269.371,44.808C260.425,51.714 258.293,61.753 258.062,68.117C256.679,68.171 255.214,68.285 253.734,68.433C253.46,62.714 254.288,52.054 262.925,44.578L262.925,44.578Z" style="fill:rgb(217,163,123);"/>
            </g>
            <g transform="matrix(0.843065,0,0,0.773965,23.5197,88.6872)">
                <path d="M95.605,86.992C90.437,70.922 89.871,31.672 98.937,15.476C100.878,12.015 103.066,9.964 105.453,9.382C117.391,6.449 129.762,20.042 140.672,32.007C144.953,36.706 148.996,41.14 152.965,44.581C160.113,50.773 161.894,59.042 162.133,65.054C160.656,65.187 159.183,65.359 157.676,65.601C157.055,59.832 154.668,51.167 146.481,44.824C143.098,42.195 139.094,38.129 135.215,34.195C124.633,23.449 114.637,13.316 105.914,18.433C103.945,19.574 101.089,22.23 98.953,32.132C95.586,47.741 95.464,77.046 105.05,94.034C103.879,95.253 102.738,96.534 101.621,97.893C99.117,95.292 97.121,91.71 95.605,86.991L95.605,86.992Z" style="fill:rgb(217,163,123);"/>
            </g>
            <g transform="matrix(0.843065,0,0,0.773965,23.5197,88.6872)">
                <path d="M128.07,214.85C129.918,214.073 131.023,212.159 130.773,210.174C130.715,209.702 125.093,162.393 146.226,136.631C153.468,127.803 163.175,122.475 175.132,120.744C176.972,132.635 183.87,165.295 205.753,186.787C202.011,185.174 197.066,184.846 192.577,184.846C185.042,184.846 176.12,185.682 173.999,192.17C171.843,198.776 178.73,205.346 186.96,211.529C184.605,214.947 179.534,219.088 172.784,223.025L172.315,216.74C172.19,215.056 171.128,213.588 169.569,212.939C168.015,212.298 166.225,212.58 164.944,213.677C163.64,214.794 161.393,215.681 158.308,216.302C154.261,217.068 149.776,217.072 146.527,216.912L148.405,205.131C148.796,202.693 147.136,200.4 144.695,200.013C142.245,199.607 139.96,201.287 139.577,203.724L136.941,220.259C136.753,221.447 137.046,222.658 137.769,223.63C138.488,224.595 139.562,225.232 140.753,225.396C141.042,225.435 145.898,226.056 151.776,225.896C147.12,237.291 140.588,260.169 150.718,283.201C151.456,284.877 153.096,285.873 154.811,285.873C155.409,285.873 156.022,285.752 156.608,285.494C158.87,284.502 159.893,281.861 158.901,279.607C148.393,255.712 159.046,230.931 162.194,224.533C162.757,224.385 163.378,224.264 163.901,224.096L164.386,230.553C164.491,232.022 165.319,233.342 166.593,234.08C166.729,234.162 166.89,234.201 167.03,234.264C168.6,246.604 175.362,263.748 193.468,263.748C199.874,263.748 205.296,261.545 209.581,257.201C216.179,250.517 218.355,240.26 219.073,233.818C220.374,234.052 221.648,234.197 222.878,234.197C224.124,234.197 225.316,233.677 226.159,232.763C227.003,231.845 227.433,230.623 227.335,229.376L226.929,224.259C227.425,224.513 227.972,224.775 228.503,225.029C231.003,227.759 245.519,245.381 242.648,282.713C242.461,285.174 244.3,287.326 246.761,287.514C246.878,287.521 246.996,287.525 247.109,287.525C249.425,287.525 251.382,285.748 251.562,283.4C253.609,256.806 247.554,239.244 242.046,229.072C244.839,229.451 247.621,229.619 250.324,229.404C252.781,229.209 254.621,227.053 254.421,224.596C254.226,222.139 252.109,220.322 249.609,220.494C242.906,221.045 236.898,219.057 233.047,217.307C227.91,214.955 224.695,212.244 224.676,212.221C223.301,211.041 221.348,210.799 219.738,211.623C218.125,212.439 217.16,214.154 217.301,215.963L217.961,224.346C217.531,224.197 217.094,224.037 216.652,223.853C209.684,221.006 202.941,214.744 199.152,210.806C206.938,204.838 213.195,198.525 211.129,192.177C211.012,191.814 210.797,191.533 210.637,191.205C219.004,198.064 229.258,203.31 241.84,205.576C243.957,205.955 246.032,204.783 246.801,202.787C247.571,200.791 246.813,198.521 245,197.388C244.684,197.189 214.047,177.306 228.508,124.361C241.594,129.482 280.625,151.091 271.5,224.401C271.289,226.085 272.051,227.741 273.457,228.679C274.203,229.175 275.067,229.425 275.934,229.425C276.703,229.425 277.473,229.229 278.161,228.831C280.403,227.538 299.997,214.581 296.575,157.413C296.426,154.944 294.246,153.108 291.844,153.222C289.383,153.37 287.5,155.487 287.653,157.952C289.223,184.222 285.617,200.081 281.684,209.327C284.492,129.483 227.192,114.472 226.575,114.319C224.258,113.753 221.946,115.085 221.243,117.342C209.723,154.514 217.985,178.061 226.95,191.272C188.888,171.874 183.485,116.092 183.43,115.46C183.215,113.031 181.051,111.218 178.656,111.394C162.215,112.589 148.968,119.183 139.281,130.999C125.472,147.851 121.785,171.8 121.152,189.175C116.195,167.714 123.047,144.359 123.141,144.05C123.852,141.687 122.512,139.191 120.149,138.48C117.801,137.761 115.293,139.101 114.578,141.464C114.024,143.284 101.32,186.437 122.82,213.523C124.078,215.07 126.219,215.625 128.07,214.847L128.07,214.85Z"/>
            </g>
            <g transform="matrix(0.843065,0,0,0.773965,23.5197,88.6872)">
                <path d="M210.39,230.784C210.046,235.557 208.679,245.409 203.21,250.932C200.628,253.538 197.445,254.803 193.476,254.803C179.382,254.803 176.398,238.221 175.765,231.623C179.593,229.479 184.152,226.584 188.113,223.217L188.113,234.244C188.113,236.717 190.117,238.713 192.582,238.713C195.051,238.713 197.051,236.717 197.051,234.244L197.051,221.213C200.719,224.553 205.363,228.217 210.391,230.783L210.39,230.784Z" style="fill:rgb(225,91,91);"/>
            </g>
            <g transform="matrix(0.843065,0,0,0.773965,23.5197,88.6872)">
                <path d="M233.22,156.38C233.22,162.368 238.048,167.196 244.036,167.196C249.981,167.196 254.809,162.368 254.809,156.38C254.809,150.392 249.981,145.564 244.036,145.564C238.048,145.564 233.22,150.388 233.22,156.38Z" style="fill-rule:nonzero;"/>
            </g>
            <g transform="matrix(0.843065,0,0,0.773965,23.5197,88.6872)">
                <path d="M171.71,156.38C171.71,150.392 166.882,145.564 160.937,145.564C154.992,145.564 150.164,150.392 150.164,156.38C150.164,162.368 154.992,167.196 160.937,167.196C166.882,167.196 171.71,162.368 171.71,156.38Z" style="fill-rule:nonzero;"/>
            </g>
            <g transform="matrix(19.0181,0,0,17.4593,-13621.6,-2769.39)">
                <text x="745.201px" y="172.112px" style="font-family:'HelloHeadlineW00-Regular', cursive;font-size:12px;fill:rgb(176,105,64);">T</text>
                <text x="751.969px" y="172.112px" style="font-family:'HelloHeadlineW00-Regular', cursive;font-size:12px;fill:rgb(20,11,21);">er</text>
                <text x="765.385px" y="172.112px" style="font-family:'HelloHeadlineW00-Regular', cursive;font-size:12px;fill:rgb(176,105,64);">RI</text>
                <text x="776.413px" y="172.112px" style="font-family:'HelloHeadlineW00-Regular', cursive;font-size:12px;fill:rgb(20,11,21);">er</text>
            </g>
            <g transform="matrix(18.9189,0,0,17.3683,-13379.3,-2580.21)">
                <text x="742.227px" y="172.112px" style="font-family:'HelloHeadlineW00-Regular', cursive;font-size:3.073px;fill:rgb(20,11,21);">T</text>
                <text x="744.034px" y="172.112px" style="font-family:'HelloHeadlineW00-Regular', cursive;font-size:3.073px;fill:rgb(176,105,64);">ranspo<tspan x="754.474px " y="172.112px ">s</tspan>able</text>
                <text x="763.336px" y="172.112px" style="font-family:'HelloHeadlineW00-Regular', cursive;font-size:3.073px;fill:rgb(20,11,21);">E</text>
                <text x="764.937px" y="172.112px" style="font-family:'HelloHeadlineW00-Regular', cursive;font-size:3.073px;fill:rgb(176,105,64);">lement</text>
                <text x="748.885px" y="175.185px" style="font-family:'HelloHeadlineW00-Regular', cursive;font-size:3.073px;fill:rgb(20,11,21);">R</text>
                <text x="750.612px" y="175.185px" style="font-family:'HelloHeadlineW00-Regular', cursive;font-size:3.073px;fill:rgb(176,105,64);">epea<tspan x="757.311px " y="175.185px ">t</tspan></text>
                <text x="759.662px" y="175.185px" style="font-family:'HelloHeadlineW00-Regular', cursive;font-size:3.073px;fill:rgb(20,11,21);">R</text>
                <text x="761.389px" y="175.185px" style="font-family:'HelloHeadlineW00-Regular', cursive;font-size:3.073px;fill:rgb(176,105,64);">esul<tspan x="767.889px " y="175.185px ">t</tspan></text>
                <text x="751.795px" y="178.258px" style="font-family:'HelloHeadlineW00-Regular', cursive;font-size:3.073px;fill:rgb(176,105,64);">classif</text>
                <text x="762.511px" y="178.258px" style="font-family:'HelloHeadlineW00-Regular', cursive;font-size:3.073px;fill:rgb(20,11,21);">IER</text>
            </g>
        </g>
    </g>
</svg>
